<svg xmlns="http://www.w3.org/2000/svg" viewBox="0 0 640 160" width="640" height="160">
  <g fill="#3f552d">
    <path d="M60 20c-22 0-40 18-40 40v40c0 22 18 40 40 40h40c22 0 40-18 40-40V60c0-22-18-40-40-40H60zm16 24h20l28 60h-20l-6-14H74l-6 14H48l28-60z"/>
    <path d="M180 20h60c26 0 44 16 44 40s-18 40-44 40h-24v24h-20V20zm20 20v40h28c12 0 24-6 24-20s-12-20-24-20h-28z"/>
    <path d="M312 16c34 0 60 26 60 60s-26 60-60 60-60-26-60-60 26-60 60-60zm0 20c-22 0-40 18-40 40s18 40 40 40 40-18 40-40-18-40-40-40z"/>
    <path d="M400 20h68c22 0 36 14 36 32 0 12-8 22-20 26l24 42h-22l-22-36h-24v36h-20V20zm20 20v28h40c8 0 16-6 16-14s-8-14-16-14h-40z"/>
    <path d="M548 16c34 0 60 26 60 60s-26 60-60 60-60-26-60-60 26-60 60-60zm0 20c-22 0-40 18-40 40s18 40 40 40 40-18 40-40-18-40-40-40z"/>
  </g>
</svg>
